<svg xmlns="http://www.w3.org/2000/svg" style="margin:auto;display:block;z-index:1;position:relative;shape-rendering:auto" width="1682" height="1279" preserveAspectRatio="xMidYMid"><g><linearGradient id="a" x1="0" x2="1" y1="0" y2="0"><stop stop-color="rgba(242, 160, 242, 0.5636895161290323)" offset="0"/><stop stop-color="rgba(58, 154, 154, 0.3959475806451612)" offset="1"/></linearGradient><path d="M1490 640c0 117-97 385-180 468S958 998 841 998s-386 193-469 110S96 757 96 640s287-292 370-375 258 11 375 11 312-115 395-32 254 279 254 396" fill="url(#a)" opacity=".15"><animate attributeName="d" dur="10s" repeatCount="indefinite" keyTimes="0;0.3333333333333333;0.6666666666666666;1" keySplines="0.3 0.1 0.7 0.9;0.3 0.1 0.7 0.9;0.3 0.1 0.7 0.9" begin="-3.3333333333333335s" values="M 1490 640 C 1490 757 1393 1025 1310 1108 C 1227 1191 958 998 841 998 C 724 998 455 1191 372 1108 C 289 1025 96 757 96 640 C 96 523 383 348 466 265 C 549 182 724 276 841 276 C 958 276 1153 161 1236 244 C 1319 327 1490 523 1490 640;M 1448 640 C 1448 757 1376 1009 1293 1092 C 1210 1175 958 1007 841 1007 C 724 1007 514 1133 431 1050 C 348 967 230 757 230 640 C 230 523 334 299 417 216 C 500 133 724 232 841 232 C 958 232 1124 191 1207 274 C 1290 357 1448 523 1448 640;M 1500 640 C 1500 757 1344 977 1261 1060 C 1178 1143 958 1122 841 1122 C 724 1122 565 1082 482 999 C 399 916 108 757 108 640 C 108 523 396 361 479 278 C 562 195 724 251 841 251 C 958 251 1171 144 1254 227 C 1337 310 1500 523 1500 640;M 1490 640 C 1490 757 1393 1025 1310 1108 C 1227 1191 958 998 841 998 C 724 998 455 1191 372 1108 C 289 1025 96 757 96 640 C 96 523 383 348 466 265 C 549 182 724 276 841 276 C 958 276 1153 161 1236 244 C 1319 327 1490 523 1490 640"/></path><path d="M1529 640c0 117-237 285-320 368s-251-29-368-29-355 181-438 98S96 757 96 640s295-284 378-367 250 1 367 1 307-108 390-25 298 274 298 391" fill="url(#a)" opacity=".15"><animate attributeName="d" dur="10s" repeatCount="indefinite" keyTimes="0;0.3333333333333333;0.6666666666666666;1" keySplines="0.3 0.1 0.7 0.9;0.3 0.1 0.7 0.9;0.3 0.1 0.7 0.9" begin="-3.3333333333333335s" values="M 1529 640 C 1529 757 1292 925 1209 1008 C 1126 1091 958 979 841 979 C 724 979 486 1160 403 1077 C 320 994 96 757 96 640 C 96 523 391 356 474 273 C 557 190 724 274 841 274 C 958 274 1148 166 1231 249 C 1314 332 1529 523 1529 640;M 1440 640 C 1440 757 1387 1020 1304 1103 C 1221 1186 958 982 841 982 C 724 982 544 1103 461 1020 C 378 937 140 757 140 640 C 140 523 357 321 440 238 C 523 155 724 297 841 297 C 958 297 1161 154 1244 237 C 1327 320 1440 523 1440 640;M 1450 640 C 1450 757 1321 953 1238 1036 C 1155 1119 958 1033 841 1033 C 724 1033 479 1168 396 1085 C 313 1002 216 757 216 640 C 216 523 370 334 453 251 C 536 168 724 246 841 246 C 958 246 1196 118 1279 201 C 1362 284 1450 523 1450 640;M 1529 640 C 1529 757 1292 925 1209 1008 C 1126 1091 958 979 841 979 C 724 979 486 1160 403 1077 C 320 994 96 757 96 640 C 96 523 391 356 474 273 C 557 190 724 274 841 274 C 958 274 1148 166 1231 249 C 1314 332 1529 523 1529 640"/></path><path d="M1471 640c0 117-181 282-264 365s-249 118-366 118-329 12-412-71-298-295-298-412 258-287 341-370 252-125 369-125 290 38 373 121 257 257 257 374" fill="url(#a)" opacity=".15"><animate attributeName="d" dur="10s" repeatCount="indefinite" keyTimes="0;0.3333333333333333;0.6666666666666666;1" keySplines="0.3 0.1 0.7 0.9;0.3 0.1 0.7 0.9;0.3 0.1 0.7 0.9" begin="-3.3333333333333335s" values="M 1471 640 C 1471 757 1290 922 1207 1005 C 1124 1088 958 1123 841 1123 C 724 1123 512 1135 429 1052 C 346 969 131 757 131 640 C 131 523 389 353 472 270 C 555 187 724 145 841 145 C 958 145 1131 183 1214 266 C 1297 349 1471 523 1471 640;M 1564 640 C 1564 757 1350 983 1267 1066 C 1184 1149 958 1066 841 1066 C 724 1066 464 1183 381 1100 C 298 1017 254 757 254 640 C 254 523 284 249 367 166 C 450 83 724 162 841 162 C 958 162 1187 128 1270 211 C 1353 294 1564 523 1564 640;M 1571 640 C 1571 757 1294 926 1211 1009 C 1128 1092 958 1113 841 1113 C 724 1113 542 1104 459 1021 C 376 938 142 757 142 640 C 142 523 333 298 416 215 C 499 132 724 152 841 152 C 958 152 1231 84 1314 167 C 1397 250 1571 523 1571 640;M 1471 640 C 1471 757 1290 922 1207 1005 C 1124 1088 958 1123 841 1123 C 724 1123 512 1135 429 1052 C 346 969 131 757 131 640 C 131 523 389 353 472 270 C 555 187 724 145 841 145 C 958 145 1131 183 1214 266 C 1297 349 1471 523 1471 640"/></path><path d="M1482 640c0 117-132 343-215 426s-309-79-426-79-360 179-443 96-193-326-193-443 187-283 270-366 249 14 366 14 286-100 369-17 272 252 272 369" fill="url(#a)" opacity=".15"><animate attributeName="d" dur="10s" repeatCount="indefinite" keyTimes="0;0.3333333333333333;0.6666666666666666;1" keySplines="0.3 0.1 0.7 0.9;0.3 0.1 0.7 0.9;0.3 0.1 0.7 0.9" begin="-3.3333333333333335s" values="M 1482 640 C 1482 757 1350 983 1267 1066 C 1184 1149 958 987 841 987 C 724 987 481 1166 398 1083 C 315 1000 205 757 205 640 C 205 523 392 357 475 274 C 558 191 724 288 841 288 C 958 288 1127 188 1210 271 C 1293 354 1482 523 1482 640;M 1541 640 C 1541 757 1337 970 1254 1053 C 1171 1136 958 1109 841 1109 C 724 1109 538 1108 455 1025 C 372 942 246 757 246 640 C 246 523 389 354 472 271 C 555 188 724 230 841 230 C 958 230 1139 175 1222 258 C 1305 341 1541 523 1541 640;M 1539 640 C 1539 757 1302 935 1219 1018 C 1136 1101 958 987 841 987 C 724 987 461 1185 378 1102 C 295 1019 171 757 171 640 C 171 523 387 352 470 269 C 553 186 724 236 841 236 C 958 236 1179 136 1262 219 C 1345 302 1539 523 1539 640;M 1482 640 C 1482 757 1350 983 1267 1066 C 1184 1149 958 987 841 987 C 724 987 481 1166 398 1083 C 315 1000 205 757 205 640 C 205 523 392 357 475 274 C 558 191 724 288 841 288 C 958 288 1127 188 1210 271 C 1293 354 1482 523 1482 640"/></path><path d="M1528 640c0 117-240 280-323 363s-247 15-364 15-377 164-460 81-158-342-158-459 134-319 217-402 284 49 401 49 379-193 462-110 225 346 225 463" fill="url(#a)" opacity=".15"><animate attributeName="d" dur="10s" repeatCount="indefinite" keyTimes="0;0.3333333333333333;0.6666666666666666;1" keySplines="0.3 0.1 0.7 0.9;0.3 0.1 0.7 0.9;0.3 0.1 0.7 0.9" begin="-3.3333333333333335s" values="M 1528 640 C 1528 757 1288 920 1205 1003 C 1122 1086 958 1018 841 1018 C 724 1018 464 1182 381 1099 C 298 1016 223 757 223 640 C 223 523 357 321 440 238 C 523 155 724 287 841 287 C 958 287 1220 94 1303 177 C 1386 260 1528 523 1528 640;M 1507 640 C 1507 757 1327 960 1244 1043 C 1161 1126 958 1027 841 1027 C 724 1027 500 1146 417 1063 C 334 980 242 757 242 640 C 242 523 376 341 459 258 C 542 175 724 147 841 147 C 958 147 1195 119 1278 202 C 1361 285 1507 523 1507 640;M 1529 640 C 1529 757 1390 1022 1307 1105 C 1224 1188 958 1046 841 1046 C 724 1046 457 1190 374 1107 C 291 1024 236 757 236 640 C 236 523 323 288 406 205 C 489 122 724 249 841 249 C 958 249 1214 100 1297 183 C 1380 266 1529 523 1529 640;M 1528 640 C 1528 757 1288 920 1205 1003 C 1122 1086 958 1018 841 1018 C 724 1018 464 1182 381 1099 C 298 1016 223 757 223 640 C 223 523 357 321 440 238 C 523 155 724 287 841 287 C 958 287 1220 94 1303 177 C 1386 260 1528 523 1528 640"/></path><path d="M1438 640c0 117-60 371-143 454s-337-43-454-43-317 72-400-11S96 757 96 640s202-377 285-460 343 52 460 52 336-94 419-11 178 302 178 419" fill="url(#a)" opacity=".15"><animate attributeName="d" dur="10s" repeatCount="indefinite" keyTimes="0;0.3333333333333333;0.6666666666666666;1" keySplines="0.3 0.1 0.7 0.9;0.3 0.1 0.7 0.9;0.3 0.1 0.7 0.9" begin="-3.3333333333333335s" values="M 1438 640 C 1438 757 1378 1011 1295 1094 C 1212 1177 958 1051 841 1051 C 724 1051 524 1123 441 1040 C 358 957 96 757 96 640 C 96 523 298 263 381 180 C 464 97 724 232 841 232 C 958 232 1177 138 1260 221 C 1343 304 1438 523 1438 640;M 1577 640 C 1577 757 1377 1009 1294 1092 C 1211 1175 958 983 841 983 C 724 983 507 1139 424 1056 C 341 973 189 757 189 640 C 189 523 283 247 366 164 C 449 81 724 162 841 162 C 958 162 1169 146 1252 229 C 1335 312 1577 523 1577 640;M 1489 640 C 1489 757 1362 994 1279 1077 C 1196 1160 958 1007 841 1007 C 724 1007 503 1143 420 1060 C 337 977 183 757 183 640 C 183 523 372 337 455 254 C 538 171 724 159 841 159 C 958 159 1226 89 1309 172 C 1392 255 1489 523 1489 640;M 1438 640 C 1438 757 1378 1011 1295 1094 C 1212 1177 958 1051 841 1051 C 724 1051 524 1123 441 1040 C 358 957 96 757 96 640 C 96 523 298 263 381 180 C 464 97 724 232 841 232 C 958 232 1177 138 1260 221 C 1343 304 1438 523 1438 640"/></path></g></svg>