<?xml version="1.0" encoding="iso-8859-1"?>
<!-- Generator: Adobe Illustrator 19.0.0, SVG Export Plug-In . SVG Version: 6.00 Build 0)  -->
<svg version="1.1" id="Layer_1" xmlns="http://www.w3.org/2000/svg" xmlns:xlink="http://www.w3.org/1999/xlink" x="0px" y="0px"
	 viewBox="0 0 512.002 512.002" style="enable-background:new 0 0 512.002 512.002;" xml:space="preserve">
<g>
	<g>
		<circle cx="161.394" cy="105.741" r="16.696"/>
	</g>
</g>
<g>
	<g>
		<circle cx="356.178" cy="105.741" r="16.696"/>
	</g>
</g>
<g>
	<g>
		<circle cx="256.003" cy="38.955" r="16.696"/>
	</g>
</g>
<g>
	<g>
		<path d="M506.711,377.372c-1.503-1.405-31.826-29.391-75.757-44.729c39.013-56.236,35.431-129.539,35.233-133.034
			c-0.48-8.497-7.274-15.273-15.771-15.731c-2.869-0.151-63.579-3.035-117.554,23.893c-18.782-56.135-63.484-95.817-65.87-97.904
			c-6.293-5.504-15.69-5.504-21.983,0c-2.386,2.087-47.088,41.77-65.87,97.904c-53.977-26.929-114.686-24.05-117.555-23.893
			c-8.497,0.457-15.291,7.234-15.771,15.731c-0.197,3.495-3.78,76.797,35.233,133.034c-43.931,15.339-74.254,43.325-75.756,44.729
			c-7.06,6.603-7.049,17.801,0,24.391c2.384,2.228,59.21,54.588,131.057,54.588c16.166,0,31.566-2.656,45.762-6.79
			c19.622,22.313,59.586,36.366,68.688,39.35c3.38,1.109,7.026,1.109,10.407,0c9.101-2.985,49.066-17.036,68.688-39.35
			c14.196,4.134,29.597,6.79,45.762,6.79c71.846,0,128.673-52.359,131.057-54.588C513.771,395.162,513.759,383.963,506.711,377.372z
			 M256.026,145.96c17.983,19.285,51.654,61.837,51.654,110.04c0,48.002-33.732,90.701-51.702,110.04
			c-17.983-19.285-51.654-61.837-51.654-110.04C204.323,207.999,238.055,165.299,256.026,145.96z M136.348,422.959
			c-38.796,0-73.574-19.89-92.714-33.396c13.909-9.822,36.079-22.982,62.026-29.447c31.071,26.816,70.793,38.176,101.734,42.903
			C188.227,413.39,163.255,422.959,136.348,422.959z M120.907,328.658c-33.132-33.765-40.184-85.39-41.542-111.252
			c21.248,1.021,59.853,5.603,92.316,24.246c-4.843,46.941,15.139,91.665,44.194,128.841
			C148.89,361.268,124.574,331.463,120.907,328.658z M256.001,455.379c-14.164-5.146-29.089-12.441-39.29-19.498
			c16.905-8.45,30.455-17.835,39.29-24.631c8.834,6.796,22.385,16.182,39.29,24.631
			C285.087,442.939,270.161,450.235,256.001,455.379z M340.32,241.651c32.487-18.657,71.125-23.232,92.355-24.249
			c-1.306,25.818-8.284,77.337-41.578,111.253c-3.66,2.8-27.819,32.452-94.912,41.763
			C325.277,333.168,345.151,288.487,340.32,241.651z M375.655,422.959c-26.91,0-51.883-9.57-71.049-19.94
			c30.943-4.727,70.666-16.087,101.737-42.903c25.951,6.466,48.122,19.629,62.025,29.446
			C449.22,403.072,414.446,422.959,375.655,422.959z"/>
	</g>
</g>
<g>
</g>
<g>
</g>
<g>
</g>
<g>
</g>
<g>
</g>
<g>
</g>
<g>
</g>
<g>
</g>
<g>
</g>
<g>
</g>
<g>
</g>
<g>
</g>
<g>
</g>
<g>
</g>
<g>
</g>
</svg>
